<?xml version="1.0" encoding="utf-8"?>
<!-- Generator: Adobe Illustrator 26.1.0, SVG Export Plug-In . SVG Version: 6.00 Build 0)  -->
<svg version="1.1" id="Слой_1" xmlns="http://www.w3.org/2000/svg" xmlns:xlink="http://www.w3.org/1999/xlink" x="0px" y="0px"
	 viewBox="0 0 400 400" style="enable-background:new 0 0 400 400;" xml:space="preserve">
<style type="text/css">
	.st0{fill:#634238;}
	.st1{fill:none;stroke:#634238;stroke-width:17;stroke-linecap:round;stroke-miterlimit:10;}
	.st2{fill:#634238;stroke:#8E6355;stroke-width:15;stroke-miterlimit:10;}
	.st3{fill:#1DB6C6;}
	.st4{fill:#168995;}
	.st5{fill:#82DCF3;}
	.st6{fill:#FFFFFF;}
	.st7{fill:#FF9F33;}
	.st8{fill:#FFD01F;}
	.st9{fill:#DE4A71;}
	.st10{fill:#8E6355;}
	.st11{fill:none;}
	.st12{fill-rule:evenodd;clip-rule:evenodd;fill:#78FFE5;}
</style>
<path class="st0" d="M-203.2,77.8c0,3.4-2.8,6.2-6.2,6.2h-298.7c-3.4,0-6.2-2.8-6.2-6.2l0,0c0-3.4,2.8-6.2,6.2-6.2h298.7
	C-206,71.6-203.2,74.4-203.2,77.8L-203.2,77.8z"/>
<rect x="-375" y="146.3" class="st0" width="34.9" height="181.7"/>
<path class="st1" d="M-222.6,77.8c0,75-60.8,135.8-135.8,135.8c-75,0-135.8-60.8-135.8-135.8"/>
<path class="st2" d="M-242.6,77.8c0,64-51.9,115.8-115.8,115.8c-64,0-115.8-51.9-115.8-115.8c0-64,51.9-115.8,115.8-115.8
	C-294.4-38.1-242.6,13.8-242.6,77.8z"/>
<path class="st0" d="M-287.9,327.1c0,6-4.9,10.9-10.9,10.9h-117.6c-6,0-10.9-4.9-10.9-10.9v-0.6c0-6,4.9-10.9,10.9-10.9h117.6
	c6,0,10.9,4.9,10.9,10.9V327.1z"/>
<g>
	<path class="st3" d="M-84.2-132.2c0,0,7,10,3.2,15.9c0,0,39.1,54.2,43.1,59.3c4,5.1,7.5,4.8,12,2.6l-45.2-61c0,0,1.5-6.7-10.1-18.3
		L-84.2-132.2z"/>
	<path class="st4" d="M-92.1-136.4c-8.4-8.4-28.6-26.4-19.1-40.4c9.5-14,29.3-4.6,25.9,10c-3.5,14.7-2.6,24.5,10,37.1l-5.1,5.1
		L-92.1-136.4z"/>
	<path class="st5" d="M-92.5-124c0,0,8,8.2,14,4.4c0,0,56.4,38.3,60.8,41.6c4.4,3.2,5.3,7.8,3.1,12.3l-61-45.2
		c0,0-6.7,1.5-18.3-10.1L-92.5-124z"/>
	<path class="st4" d="M-96.6-131.8c-8.4-8.4-26.4-28.6-40.4-19.1c-14,9.5-4.6,29.3,10,25.9c14.7-3.5,24.5-2.6,37.1,10l5.1-5.1
		L-96.6-131.8z"/>
	<path class="st6" d="M-105.4-162.4c-3.7-3.7-3.7-9.7,0-13.4c3.7-3.7,9.7-3.7,13.4,0c3.7,3.7,3.7,9.7,0,13.4
		C-95.7-158.7-101.7-158.7-105.4-162.4z"/>
	<path class="st6" d="M-135.7-132.1c-3.7-3.7-3.7-9.7,0-13.4c3.7-3.7,9.7-3.7,13.4,0c3.7,3.7,3.7,9.7,0,13.4
		C-126-128.4-132-128.4-135.7-132.1z"/>
</g>
<path class="st4" d="M-143.5-142.1c0,0-13.5-5-17.7,4.2c-4.2,9.3,5.3-8.6,19.8,2.1"/>
<g>
	<path class="st7" d="M134-110.2c-0.1,0.6-0.2,1.2-0.2,1.8V-95c0,4.4,3.6,8,8,8h20.5c4.4,0,8-3.6,8-8v-13.4c0-0.6-0.1-1.2-0.2-1.8
		H134z"/>
	<polygon class="st8" points="175.8,-191.5 127.6,-191.5 133.8,-110.5 170.4,-110.5 	"/>
	<path class="st9" d="M174.2-167.9l0.9-14.4c-10.2,6.3-20.4,12.7-30.8,18.8c-4.5,2.7-9.2,5.3-14,7.6l1.1,14.3
		C146-149.7,160.1-158.9,174.2-167.9z"/>
	<path class="st9" d="M173.1-151.5l0.7-10c-13.8,8.5-27.7,17-42,24.6l0.7,9.5C146.2-135.2,159.6-143.4,173.1-151.5z"/>
	<rect x="127.7" y="-199.5" class="st7" width="48" height="8"/>
	<path class="st9" d="M146.3-109.7v7.6c0,3,2.4,5.4,5.4,5.4c3,0,5.4-2.4,5.4-5.4v-7.6H146.3z"/>
</g>
<path class="st0" d="M352.1,88.6c-2.5,2.7-7.7-3.1-18.2-3.2c-11.3-0.1-18.6,6.4-21.3,3.2c-0.9-1-0.4-2.1,0-6.4
	c0.1-0.8,1.4-13.7,0-25.8c-0.5-4.1-0.9-5.4,0-6.4c2.4-2.8,8.6,2.5,18.2,3.2c12,0.9,18.5-6.4,21.3-3.2c2.5,2.8-3.1,8.2-3,19.3
	C349.1,80.3,354.6,85.9,352.1,88.6z"/>
<path class="st10" d="M237.6,174.4c3-3.3,1.4-6.8,0-25c-1.4-18.7-2.2-28.2,0.8-35.6c5.5-13.5,17.7-20.1,20.7-21.6
	c12.8-6.9,32.2-9.5,43-2.2c1.7,1.1,5.4,4,7.1,2.9c1.5-1,0.6-4.2,0-7.8c-0.4-2.3-3.2-18.7,0-32.2c0.5-2.2,1.6-6.2,0-7.4
	c-1.1-0.8-3.1,0-3.6,0.2c-6.4,2.7-22.3,1.2-35.8,0c-14.5-1.3-20.4-7.5-35.8-14.3c-10.8-4.8-42.5-18.8-71.6-10.7
	c-20.7,5.8-15.9,16-53.7,35.8c-15,7.9-23.9,10.5-25,17.8c-2,12.9,22.5,26.1,27.3,28.7c9,4.9,27.4,12.9,54.9,10.8
	c2.4,7.4,4.9,18.7,3.6,32.1c-1.6,16-7.7,23.5-3.6,28.6c4.4,5.5,13.6-0.1,35.8,0C223.8,174.5,232.5,180.1,237.6,174.4z"/>
<path class="st0" d="M324.6,303.8c3.9,29.1-24.2,64-54.8,74.5c-23.5,8-30.3-4.6-78.7-3.6c-42.3,0.9-48.4,10.8-68,3.6
	c-29.8-11-53.6-48.1-46.4-74.5c5.8-20.9,25-16.4,46.4-47.2c19.4-28,11.7-43.6,32.2-60.8c19-15.9,41.7-16,45.4-15.9
	c24.8,0.3,41.6,14.3,47.7,19.5c12.3,10.5,14.9,19.2,25,35.8C302.3,282.9,321.6,281.4,324.6,303.8z"/>
<path class="st0" d="M294.4,91.5c-1.5-0.5-3.8-1-5.6,0c-6,3.4,1.8,18.6,0,39.2c-1.6,18.2-9.1,20.9-8.4,39.2
	c0.4,10.9,3.4,20.9,5.2,20.8c2-0.1,1.2-11.9,6-29.3c3.2-11.7,4.8-10.8,8.4-22.4c2.7-8.9,11-35.5,0-44.8
	C298.1,92.6,295.9,91.8,294.4,91.5z"/>
<g>
	<g>
		<g>
			<ellipse class="st11" cx="-214.1" cy="-141.1" rx="209.7" ry="211.6"/>
		</g>
	</g>
</g>
<g>
	<g>
		<path class="st12" d="M385.3-126.1c0.3,6.7,0.3,12.9-4.1,14.9c-2.8,10.2-7.1,19.9-18.9,21.2c-15.7,1.7-30.3-7.9-28.9-25.1
			c-1.8-2.7-7.2-2-10-0.8c-1.2,7-1.8,11.8-4.6,16.2c-7.4,11.4-30.8,13.7-38.9,1.9c-1.4-2-2.6-4.6-3.5-6.9c-0.8-2.4-0.6-5.7-1.9-8.5
			c-0.8-1.5-3.3-2.3-3.9-4.6c-0.7-2.6,0.7-6.8,0.8-9.7c19-2.5,32.4-3,45.4,2.4c1.9,0.8,3.8,2.8,5.8,3.1c1.5,0.2,3.8-0.8,5.8-0.8
			c2.4,0,4.8,1.3,6.2,1.2c3.4-0.3,7-3.3,10.8-4.2C358.1-129.1,370.4-127.9,385.3-126.1z M280.4-119.2c-2.4,6.8,0,19.7,5.2,23.4
			c8.8,6.2,25.3,2.6,30.1-4.2c1.7-2.5,5.1-9.6,3.1-15.8c-2.4-7.4-13.9-8.9-24.3-8.9C289.3-124.8,281.5-122.4,280.4-119.2z
			 M341.1-118.9c-4.3,4.7-3,15.3,0.8,19.7c6.5,7.5,22.3,10,30.1,2.7c4.2-4,8.3-16.1,4.2-22.6c-2.3-3.7-12.8-5.1-21.2-4.4
			C348.4-123.1,343.9-122.1,341.1-118.9z"/>
	</g>
	<g>
		<path d="M372.3-69.1c0,0,5.5,3,3.2,7.9c-24.4,2.7-29.1-25.8-46.8-13.4c-17.7-12.4-22.4,16-46.8,13.4c-2.4-5,3.2-7.9,3.2-7.9
			c-9.3,0.4-6.2,11.4-4.8,14.3c7.2,14.2,41,6.7,48.4-3.9c7.4,10.6,41.2,18.1,48.4,3.9C378.6-57.7,381.6-68.7,372.3-69.1z"/>
	</g>
	<g>
		<g>
			<g>
				<path d="M353.5-219.8c11.8-2.3,11.9,18.8,12.4,35c3.2-0.3,22.5-1.7,28.7,2.1c2.7,0,4.6,0.1,4.9,0.1c0.9,0.1,1.2-0.1,0.5-0.7
					c-5-4.6-26.3-3.1-29.6-2.8c-0.5-16.2-0.6-37.3-12.4-35c-8.2,1.6-32.8,3.2-51.2,0.6c-5-0.7-8.8-0.1-11.6,1.2
					c2-0.3,4.4-0.3,7.1,0.1C320.7-216.5,345.2-218.2,353.5-219.8z"/>
			</g>
		</g>
		<g>
			<g>
				<path d="M400.7-181.1c-2.1-0.2-14.1,1.6-16,1.7c-3.7,0.5-8.1,1.6-12.8,3c3-0.8,5.9-1.4,8.4-1.7c2,0,14-1.9,16.1-1.7
					c0.5,0,0.7,0.2,0.4,1.1c-7.6,6.3-34.2,19-55.7,25.6c22.1-6,52.1-20.1,60.2-26.9C401.4-180.9,401.2-181.1,400.7-181.1z"/>
			</g>
		</g>
		<g>
			<g>
				<path d="M396.2-179.8c-2.1-0.2-14.1,1.6-16.1,1.7c-2.5,0.3-5.4,0.9-8.4,1.7c-21.9,5.8-54,22.1-56.6,23.8
					c-0.1,0.1-0.2,0.1-0.3,0.2c-3.3,1.7-10.4,1.9-11.8,1.6c-6.5,0.1-18.2,0.2-31.2-5.2c-1.5-1-2.7-2-3.7-3.2c4.7,2.6,11,4,17.1,4.9
					c6.5,0.9,13,1.2,17.4,1.4c7.1,0.4,9,0.2,11.4-1.2c0.2-0.1,0.3-0.2,0.5-0.3c9.9-9,39.7-20,56-24.5c5.3-1.6,9.7-2.7,12.5-3.1
					c3.5-0.5,8.1-0.6,11.5-0.6c-6.2-3.8-25.5-2.4-28.7-2.1c-0.5-16.2-0.6-37.3-12.4-35c-8.2,1.6-32.8,3.2-51.2,0.6
					c-2.7-0.4-5.1-0.4-7.1-0.1c-11.5,1.6-12.6,12.8-12.1,16c0.3,2.3,1.5,15.9,2.1,26.7c0.4,7.1,0.5,13.1-0.2,13.8l-0.5,0
					c-0.1-0.3-1.2-11.4-1.2-12.1c-0.3-0.1-6.9-1.4-12.9-0.4c-5.2,0.8-9.9,3.3-9.7,9.8c0.4,13.1,21.1,21.4,63.8,16.2
					c4.7-0.6,10.3-1.9,16.3-3.8c21.5-6.5,48.2-19.3,55.7-25.6C396.9-179.6,396.7-179.8,396.2-179.8z"/>
			</g>
		</g>
	</g>
</g>
</svg>
