<?xml version="1.0" encoding="utf-8"?>
<!-- Generator: Adobe Illustrator 26.1.0, SVG Export Plug-In . SVG Version: 6.00 Build 0)  -->
<svg version="1.1" id="Слой_1" xmlns="http://www.w3.org/2000/svg" xmlns:xlink="http://www.w3.org/1999/xlink" x="0px" y="0px"
	 viewBox="0 0 400 400" style="enable-background:new 0 0 400 400;" xml:space="preserve">
<style type="text/css">
	.st0{fill:#634238;}
	.st1{fill:none;stroke:#634238;stroke-width:17;stroke-linecap:round;stroke-miterlimit:10;}
	.st2{fill:#634238;stroke:#8E6355;stroke-width:15;stroke-miterlimit:10;}
	.st3{fill:#8E6355;}
	.st4{fill:#B77D6B;}
	.st5{fill:none;}
	.st6{fill-rule:evenodd;clip-rule:evenodd;fill:#8E6355;}
</style>
<path class="st0" d="M-203.2,77.8c0,3.4-2.8,6.2-6.2,6.2h-298.7c-3.4,0-6.2-2.8-6.2-6.2l0,0c0-3.4,2.8-6.2,6.2-6.2h298.7
	C-206,71.6-203.2,74.4-203.2,77.8L-203.2,77.8z"/>
<rect x="-375" y="146.3" class="st0" width="34.9" height="181.7"/>
<path class="st1" d="M-222.6,77.8c0,75-60.8,135.8-135.8,135.8c-75,0-135.8-60.8-135.8-135.8"/>
<path class="st2" d="M-242.6,77.8c0,64-51.9,115.8-115.8,115.8c-64,0-115.8-51.9-115.8-115.8c0-64,51.9-115.8,115.8-115.8
	C-294.4-38.1-242.6,13.8-242.6,77.8z"/>
<path class="st0" d="M-287.9,327.1c0,6-4.9,10.9-10.9,10.9h-117.6c-6,0-10.9-4.9-10.9-10.9v-0.6c0-6,4.9-10.9,10.9-10.9h117.6
	c6,0,10.9,4.9,10.9,10.9V327.1z"/>
<path class="st3" d="M216.7,153.5c0,0,8.6,29.7-5.4,41c0,0,49.7,163,55.1,178.6c5.4,15.6,14.2,17.8,26.9,16.1l-58.8-184.3
	c0,0,9.2-15-9.2-52.6L216.7,153.5z"/>
<path class="st4" d="M190.1,166.6c0,0,12.5,26.3,30,22.2c0,0,104.4,139,112.3,150.4c7.9,11.4,6.3,23.3-2.8,32.2L219.9,212
	c0,0-17.5-2-35.9-39.5L190.1,166.6z"/>
<path class="st0" d="M242.6,69.3c20.4-32.6-19.6-71.4-54.1-45.5c-34.4,25.9-0.7,85.9,12.7,113.2l18.6,38.1l16.3-8
	C216.2,126.2,222.2,101.9,242.6,69.3z M223,74.3c-12,5.9-26.4,0.9-32.3-11.1c-5.9-12-0.9-26.4,11.1-32.3c12-5.9,26.4-0.9,32.3,11.1
	C239.9,54,234.9,68.4,223,74.3z"/>
<path class="st0" d="M186.5,144.2c-13.4-27.2-40.1-90.7-81.7-79.3c-41.6,11.4-35.4,66.8,2.9,70.6c38.2,3.8,61.2,13.9,81.2,54.8
	l16.4-8L186.5,144.2z M124.9,122.4c-12,5.9-26.4,0.9-32.3-11.1c-5.9-12-0.9-26.4,11.1-32.3c12-5.9,26.4-0.9,32.3,11.1
	C141.8,102,136.8,116.5,124.9,122.4z"/>
<path class="st0" d="M82,80.7c0,0-28.5-23.3-46.3-4.5C17.9,95.1,55.6,59.8,81.7,97.6"/>
<path class="st3" d="M-570.8-98.3c-0.4,1.8-0.7,3.8-0.7,5.7v42.9c0,14.2,11.5,25.7,25.7,25.7h65.8c14.2,0,25.7-11.5,25.7-25.7v-42.9
	c0-2-0.2-3.9-0.7-5.7H-570.8z"/>
<polygon class="st0" points="-437.1,-358.8 -591.5,-358.8 -571.5,-99.4 -454.3,-99.4 "/>
<path class="st4" d="M-442.2-283.1l3-46.1c-32.7,20.3-65.4,40.8-98.6,60.3c-14.5,8.6-29.5,17-45,24.5l3.5,45.8
	C-532.5-225-487.5-254.4-442.2-283.1z"/>
<path class="st4" d="M-445.6-230.8l2.1-31.9c-44.3,27.2-88.7,54.3-134.5,78.9l2.3,30.4C-532-178.6-488.8-204.8-445.6-230.8z"/>
<rect x="-591.3" y="-384.5" class="st3" width="153.8" height="25.6"/>
<path class="st4" d="M-531.5-96.9v24.3c0,9.5,7.7,17.2,17.2,17.2c9.5,0,17.2-7.7,17.2-17.2v-24.3H-531.5z"/>
<path class="st0" d="M-569.9,57.6c-2.5,2.7-7.7-3.1-18.2-3.2c-11.3-0.1-18.6,6.4-21.3,3.2c-0.9-1-0.4-2.1,0-6.4
	c0.1-0.8,1.4-13.7,0-25.8c-0.5-4.1-0.9-5.4,0-6.4c2.4-2.8,8.6,2.5,18.2,3.2c12,0.9,18.5-6.4,21.3-3.2c2.5,2.8-3.1,8.2-3,19.3
	C-572.9,49.3-567.4,54.9-569.9,57.6z"/>
<path class="st3" d="M-684.4,143.4c3-3.3,1.4-6.8,0-25c-1.4-18.7-2.2-28.2,0.8-35.6c5.5-13.5,17.7-20.1,20.7-21.6
	c12.8-6.9,32.2-9.5,43-2.2c1.7,1.1,5.4,4,7.1,2.9c1.5-1,0.6-4.2,0-7.8c-0.4-2.3-3.2-18.7,0-32.2c0.5-2.2,1.6-6.2,0-7.4
	c-1.1-0.8-3.1,0-3.6,0.2c-6.4,2.7-22.3,1.2-35.8,0C-666.8,13.2-672.7,7-688,0.3c-10.8-4.8-42.5-18.8-71.6-10.7
	c-20.7,5.8-15.9,16-53.7,35.8c-15,7.9-23.9,10.5-25,17.8c-2,12.9,22.5,26.1,27.3,28.7c9,4.9,27.4,12.9,54.9,10.8
	c2.4,7.4,4.9,18.7,3.6,32.1c-1.6,16-7.7,23.5-3.6,28.6c4.4,5.5,13.6-0.1,35.8,0C-698.2,143.5-689.5,149.1-684.4,143.4z"/>
<path class="st0" d="M-597.4,272.8c3.9,29.1-24.2,64-54.8,74.5c-23.5,8-30.3-4.6-78.7-3.6c-42.3,0.9-48.4,10.8-68,3.6
	c-29.8-11-53.6-48.1-46.4-74.5c5.8-20.9,25-16.4,46.4-47.2c19.4-28,11.7-43.6,32.2-60.8c19-15.9,41.7-16,45.4-15.9
	c24.8,0.3,41.6,14.3,47.7,19.5c12.3,10.5,14.9,19.2,25,35.8C-619.7,251.9-600.4,250.4-597.4,272.8z"/>
<path class="st0" d="M-627.6,60.5c-1.5-0.5-3.8-1-5.6,0c-6,3.4,1.8,18.6,0,39.2c-1.6,18.2-9.1,20.9-8.4,39.2
	c0.4,10.9,3.4,20.9,5.2,20.8c2-0.1,1.2-11.9,6-29.3c3.2-11.7,4.8-10.8,8.4-22.4c2.7-8.9,11-35.5,0-44.8
	C-623.9,61.6-626.1,60.8-627.6,60.5z"/>
<g>
	<g>
		<g>
			
				<ellipse transform="matrix(0.3236 -0.9462 0.9462 0.3236 -83.8349 -67.4913)" class="st5" cx="-89.1" cy="24.9" rx="539.2" ry="534.4"/>
		</g>
	</g>
</g>
<g>
	<path class="st6" d="M-371.8,546.4c0.6,13.9,0.6,26.6-8.4,30.8c-5.7,21.2-14.7,41.2-39.1,43.8c-32.5,3.5-62.7-16.4-59.8-51.8
		c-3.7-5.5-14.8-4.2-20.7-1.6c-2.5,14.5-3.7,24.5-9.6,33.5c-15.3,23.5-63.6,28.4-80.5,4c-2.8-4.1-5.4-9.5-7.2-14.3
		c-1.7-4.9-1.2-11.9-4-17.5c-1.6-3.2-6.7-4.8-8-9.6c-1.4-5.3,1.4-14,1.8-20.1c39.3-5.1,66.9-6.1,93.9,5c3.9,1.6,7.9,5.7,11.9,6.4
		c3.1,0.5,7.9-1.7,12-1.6c5,0.1,9.8,2.6,12.7,2.4c7-0.6,14.5-6.8,22.3-8.8C-427.9,540.3-402.6,542.7-371.8,546.4z M-588.7,560.8
		c-4.9,14-0.1,40.7,10.8,48.3c18.2,12.8,52.4,5.5,62.2-8.8c3.6-5.2,10.5-19.8,6.4-32.7c-4.9-15.3-28.7-18.4-50.2-18.4
		C-570.2,549.2-586.3,554-588.7,560.8z M-463.1,561.3c-8.8,9.8-6.3,31.5,1.6,40.6c13.4,15.4,46.1,20.7,62.2,5.6
		c8.8-8.2,17.2-33.4,8.7-46.7c-4.8-7.6-26.4-10.5-43.8-9.2C-448.1,552.7-457.2,554.8-463.1,561.3z"/>
</g>
<g>
	<path class="st0" d="M-398.5,664.3c0,0,11.4,6.1,6.6,16.4c-50.5,5.5-60.1-53.3-96.7-27.6c-36.6-25.7-46.2,33.1-96.7,27.6
		c-4.9-10.3,6.6-16.4,6.6-16.4c-19.2,0.9-12.9,23.5-9.9,29.6c14.8,29.3,84.8,13.8,100-8.1c15.3,21.8,85.2,37.4,100,8.1
		C-385.6,687.8-379.3,665.2-398.5,664.3z"/>
</g>
<g>
	<path class="st4" d="M-437.6,352.8c24.4-4.7,24.5,38.8,25.6,72.4c6.6-0.6,46.4-3.4,59.3,4.4c5.5,0,9.6,0.2,10.1,0.2
		c1.8,0.2,2.4-0.3,1-1.4c-10.3-9.6-54.3-6.4-61.2-5.8c-1.1-33.6-1.2-77.1-25.6-72.4c-17,3.3-67.8,6.7-105.8,1.2
		c-10.4-1.5-18.1-0.3-23.9,2.4c4.2-0.6,9.1-0.6,14.7,0.2C-505.4,359.5-454.6,356.1-437.6,352.8z"/>
</g>
<g>
	<g>
		<path class="st0" d="M-339.9,432.7c-4.3-0.5-29.1,3.4-33.2,3.4c-7.7,1-16.8,3.3-26.5,6.2c6.2-1.7,12.1-2.9,17.3-3.6
			c4.1-0.1,28.9-3.9,33.2-3.4c1,0.1,1.4,0.4,0.9,2.2c-15.7,13-70.8,39.4-115.2,52.9c45.7-12.4,107.6-41.6,124.4-55.5
			C-338.5,433.1-338.9,432.8-339.9,432.7z"/>
	</g>
</g>
<g>
	<g>
		<path class="st0" d="M-349.1,435.4c-4.3-0.5-29.1,3.4-33.2,3.4c-5.2,0.7-11.1,1.9-17.3,3.6c-45.3,12-111.6,45.7-117,49.1
			c-0.2,0.1-0.4,0.2-0.6,0.3c-6.7,3.5-21.4,3.9-24.4,3.3c-13.3,0.2-37.6,0.3-64.5-10.7c-3-2-5.5-4.2-7.6-6.6
			c9.8,5.3,22.7,8.3,35.4,10.1c13.5,1.9,26.8,2.4,35.9,3c14.7,0.8,18.7,0.5,23.5-2.4c0.4-0.2,0.7-0.4,1.1-0.7
			c20.5-18.5,82-41.4,115.7-50.6c11-3.3,20.1-5.6,25.8-6.4c7.3-1,16.7-1.3,23.7-1.2c-12.9-7.9-52.8-5-59.3-4.4
			c-1.1-33.6-1.2-77.1-25.6-72.4c-17,3.3-67.8,6.7-105.8,1.2c-5.6-0.8-10.5-0.8-14.7-0.2c-23.9,3.4-26,26.4-25.1,33
			c0.5,4.7,3.2,32.8,4.4,55.2c0.8,14.7,1,27-0.5,28.6l-1-0.1c-0.2-0.6-2.4-23.6-2.4-25.1c-0.7-0.1-14.3-2.8-26.6-0.9
			c-10.7,1.7-20.4,6.9-20,20.2c0.9,27.2,43.7,44.2,132,33.5c9.7-1.2,21.3-4,33.8-7.8c44.4-13.5,99.5-39.9,115.2-52.9
			C-347.7,435.8-348.1,435.4-349.1,435.4z"/>
	</g>
</g>
</svg>
