<?xml version="1.0" encoding="utf-8"?>
<!-- Generator: Adobe Illustrator 26.1.0, SVG Export Plug-In . SVG Version: 6.00 Build 0)  -->
<svg version="1.1" id="Слой_1" xmlns="http://www.w3.org/2000/svg" xmlns:xlink="http://www.w3.org/1999/xlink" x="0px" y="0px"
	 viewBox="0 0 1000 1000" style="enable-background:new 0 0 1000 1000;" xml:space="preserve">
<style type="text/css">
	.st0{fill:#634238;}
	.st1{fill:#FFFFFF;}
	.st2{opacity:0.36;}
	.st3{fill:#333333;}
</style>
<path class="st0" d="M-892,145c-123.7-33.3-247.3-66.7-371-100c-122.3,33.3-244.7,66.7-367,100c0-315.3,0-630.7,0-946h738V145z"/>
<image style="overflow:visible;" width="5000" height="5000" xlink:href="../Imglogo.png"  transform="matrix(0.1968 0 0 0.1968 -1450 -923)">
</image>
<path class="st0" d="M115.6,6.3h769.8V993c-128.9-34.7-257.8-69.4-386.7-104.2C371,923.6,243.3,958.3,115.6,993
	C115.6,664.1,115.6,335.2,115.6,6.3z"/>
<g>
	<g>
		<path class="st1" d="M612,213.3c0.4-0.7,0.7-1.4,1-2.1c-42.4-11.7-97-8.9-150,7c0.4,0.1,0.7,0.1,1.1,0.2c1.3,0.3,2.6,0.7,4,1
			c0.1,0,0.2,0,0.3,0.1c2.2-0.3,4.4,0.1,6.6,1.3c1.8,1,3.1,2.6,3.7,4.5c26.1-6.8,52.3-10.3,76.7-10.3c18.6,0,36.3,2,52.2,6.2
			C609.1,218.6,610.6,216,612,213.3z"/>
		<path class="st1" d="M720.5,360.7c1-0.5,1.9-1,2.8-1.5c-1-9.3-3.3-22.9-8.5-37.8c-12.5-35.9-35.9-61.8-67.7-75
			c-2.9-1.2-5.9-2.3-9.1-3.3c-1.1,2.5-2.5,4.9-3.9,7.2c3.4,1,6.7,2.2,9.9,3.5c30,12.4,51.2,35.9,63.1,69.9
			c5.6,16.1,7.7,30.9,8.5,39.7C717.2,362.4,718.9,361.6,720.5,360.7z"/>
		<path class="st1" d="M300.7,487.8c4,0,8,0,12,0c-0.1-0.1-0.2-0.3-0.2-0.4c-18.9-32.9-22.4-73.2-10.3-119.7
			c8-30.7,27.8-59.4,57.5-83.8c-1.9-0.2-3.8-1-5.3-2.4c-1.6-1.4-2.4-3.4-2.5-5.5c-31.1,25.8-51.9,56.3-60.4,88.9
			c-14.9,57.4-4.3,97.8,8.7,122.9C300.3,487.8,300.5,487.8,300.7,487.8z"/>
		<path class="st1" d="M726.8,534.9c-17.3,24.7-64.2,91.5-149.8,123.3c-65.7,24.4-116,21-146.6,13.9c-23.7-5.5-58.5-15.9-78.5-49.3
			c-25-41.7-7.6-88.8-4.7-96.3c-8.2-8.1-16.5-16.2-24.7-24.4c-4.3,0-8.7,0-13-0.1c-0.3,0-0.5,0-0.8,0c3.7,5.5,8.7,11.8,15,18
			c4,3.9,7.9,7.2,11.5,10c-4.6,13.9-16.4,59,7.2,98.4c15.3,25.5,46.4,45.3,85.5,54.4c13.3,3.1,30,5.5,49.9,5.5
			c14.5,0,55.2-0.8,103.1-19.8c11.1-4.4,61.7-25.3,101.4-68.8c17.8-19.5,32.9-43,35.6-47.3c7.7-12,13.4-22.6,17.5-30.6
			C733.5,525,730.5,529.6,726.8,534.9z"/>
	</g>
	<g>
		<path class="st1" d="M339.1,594c-1.4,0.2-2.7,0.2-4.1,0.2c-21.9,0-39.8-20-39.8-44.7c0-17.5,9-32.7,22.1-40
			c-1.3-0.7-2.5-1.8-3.4-3.2c-0.8-1.3-1.2-2.8-1.2-4.3c-1.1,0-2.2,0-3.3,0c-0.2,0-0.6,0-0.8,0c-2.9,2.2-25.1,20-24.5,47.5
			c0.7,29.8,27.8,55.7,50.8,55.7c2.2,0,4.4-0.2,6.5-0.5C339.7,601.5,338.7,597.7,339.1,594z"/>
	</g>
	<g>
		<path class="st1" d="M756,382.5c-9.5-2.8-17.8-0.6-20.4,0.1c-5.8,1.6-9.9,4.2-12.5,5.8c-2.5,1.6-6.7,4.3-10.6,8.9
			c-5.3,6.5-7.2,13.5-7.9,18.1c2.1-4,6.7-11.5,15.6-17.2c10.9-7,26.7-10.3,38.8-4.6c22.8,10.8,20.3,48.6,17.8,67.6
			c-1.1,8.7-7.8,38.2-27.1,42.3c-17.6,3.8-34.8-16.1-36.3-17.8c-6.3-7.5-9.2-15.3-10.5-20.1c0.4,3.4,1.3,8.8,3.7,15
			c0.7,1.8,13.1,33.2,35.9,34.8c0.9,0.1,4.8,0.3,9.6-1.1c24.7-7.3,32.8-45.8,34.1-51.7c0.8-3.9,8.8-44.3-11.8-67.7
			C771.7,391.9,765.9,385.3,756,382.5z"/>
	</g>
	<g>
		<path class="st1" d="M726.2,465.9c-6.6-11.4-2.9-23.1-2-25.8c1.2-3.5,3.6-10.2,10.4-15.5c6.7-5.3,13.9-6.2,16.8-6.4
			c-3.5,1.7-8.7,4.9-13.2,10.5c-2.4,2.9-8.4,11.4-8.4,23.3c0,1.7,0.1,7.6,3,14.5c2.6,6,6.1,10.1,8.4,12.4
			C738.3,477.6,730.9,474.1,726.2,465.9z"/>
	</g>
	<g>
		<path class="st1" d="M728.2,460.4c-0.2-0.1-0.6,0-1.2-0.2c0,0,0,0,0,0c-0.3-0.1-0.7-0.3-1-0.5c-0.4-0.3-1.5-3.8-1.2-6.2
			c0.8-6.1,12.1-13.5,22.4-11c3.2,0.8,5.6,2.3,7,3.3c-1.8-0.2-4.5-0.3-7.7,0.2c-3.6,0.6-9.2,1.5-13.3,6.2c-1.2,1.3-3.5,4.4-4.4,9.5
			C728.6,460.8,728.4,460.5,728.2,460.4z"/>
	</g>
	<g>
		<path class="st1" d="M478.1,539.6c33.7-5.9,81-38,96.4,0.2c20.4,50.5-35.2,80.8-87.6,86.5c-47.2,5.1-88.4-17.5-86.5-53.6
			C402.2,540.1,437.3,546.7,478.1,539.6z"/>
	</g>
	<g class="st2">
		<path class="st3" d="M481.8,553.4c25.3-3.7,61.7-24.2,72.3,0.1c12.9,29.5-23.5,47.7-65.8,54.1c-35.1,5.3-66.6-4.1-64.9-33.5
			C424.6,553.7,451.1,557.9,481.8,553.4z"/>
	</g>
	<g>
		<path class="st1" d="M473.6,632.5c-25.4,0-48.3-7.7-63-21.6c-11.1-10.6-16.6-23.9-15.8-38.5c1.6-29.6,26.3-32,55-34.8
			c8.8-0.9,17.8-1.7,27.3-3.4l0,0c8.6-1.5,18.1-4.8,28.2-8.3c27.2-9.4,61-21.1,74.3,11.8c7,17.4,6.1,34.3-2.6,48.9
			c-16.8,28-57.3,41.7-89.5,45.1C482.8,632.2,478.2,632.5,473.6,632.5z M479.1,545.1c-9.9,1.7-19.6,2.7-28.1,3.5
			c-29.7,2.9-44,5.1-45,24.4c-0.6,11.3,3.7,21.6,12.4,29.9c14.7,14,40.8,20.8,68,17.9c37.2-4,69.1-19.6,81.2-39.8
			c7-11.7,7.6-24.8,1.9-39.1c-8.7-21.6-28.6-16.5-60.4-5.5C498.9,539.8,488.5,543.4,479.1,545.1L479.1,545.1z M478.1,539.6
			L478.1,539.6L478.1,539.6z"/>
	</g>
	<g>
		
			<ellipse transform="matrix(0.9811 -0.1935 0.1935 0.9811 -77.3273 115.6482)" class="st1" cx="553.3" cy="453.6" rx="25.5" ry="38.2"/>
	</g>
	<g>
		
			<ellipse transform="matrix(0.9811 -0.1935 0.1935 0.9811 -77.2244 116.7078)" class="st1" cx="558.7" cy="453.6" rx="7.4" ry="11.1"/>
	</g>
	<g>
		
			<ellipse transform="matrix(0.9811 -0.1935 0.1935 0.9811 -86.1767 89.5106)" class="st1" cx="415.1" cy="485.8" rx="20.6" ry="28.5"/>
	</g>
	<g>
		
			<ellipse transform="matrix(0.9811 -0.1935 0.1935 0.9811 -85.491 90.4981)" class="st1" cx="420.5" cy="482.8" rx="6.7" ry="11.1"/>
	</g>
	<g>
		<path class="st1" d="M357.5,437.3c7.6,2.1,14.8,3.8,21.9,4.7c7,0.9,13.9,0.8,20.2-0.8c6.3-1.6,12.1-4.6,17.4-9.1
			c5.4-4.4,10.2-10.1,15.3-16.1c-0.9,7.9-4,15.5-9,22.1c-5,6.6-12.6,11.8-21.1,13.9c-8.5,2.1-17.2,1.1-24.9-1.5
			c-3.8-1.4-7.5-3.2-10.8-5.3C363.2,442.8,360.1,440.4,357.5,437.3z"/>
	</g>
	<g>
		<path class="st1" d="M485.2,372.4c-1-4.6-0.8-9.4,0.1-14.1c0.9-4.7,2.7-9.4,5.3-13.6c1.3-2.1,2.8-4.2,4.4-6
			c1.6-1.9,3.5-3.6,5.5-5.2c3.9-3.1,8.4-5.6,13-7.4c1.2-0.4,2.3-0.8,3.5-1.2c1.3-0.4,2.6-0.7,3.8-0.9c2.6-0.4,5.1-0.7,7.6-0.7
			c5,0,10,0.9,14.7,2.6c4.7,1.7,9,4.3,12.6,7.6c3.6,3.3,6.4,7.3,8,11.7c-7-6.1-14.8-9.7-22.9-11c-4-0.7-8.1-0.8-12.1-0.5
			c-2,0.2-3.9,0.5-5.8,0.9c-0.9,0.2-1.8,0.5-2.7,0.8c-0.9,0.3-1.9,0.7-2.8,1c-7.6,3-14.3,7.3-19.8,13.5
			C492.2,356,488,363.6,485.2,372.4z"/>
	</g>
	<g>
		<path class="st1" d="M490,603.9c-14.4,0-26-10.9-26-24.4c0-13.4,11.7-24.4,26-24.4c14.4,0,26,10.9,26,24.4
			C516.1,593,504.4,603.9,490,603.9z M490,560.5c-11.4,0-20.7,8.5-20.7,19c0,10.5,9.3,19,20.7,19c11.4,0,20.7-8.5,20.7-19
			C510.7,569,501.4,560.5,490,560.5z"/>
	</g>
	<path class="st1" d="M572.7,172.2c-14.3-4.2-26-4.4-47.3-4.9c-17.7-0.4-33.6,0.8-48.3,1.9c-3,0.2-14.2,3.4-24.7,2.3
		c-15.6-1.7-51.2,0-78,15.6c0,0-17.9,4.6-27.6,10.2c0,0-18.7,6.6-24.2,13.7c0,0-38.4,18.6-39.7,37.7c0,0-10.2,13.2-10.5,24
		c0,0-17,27.5-6.6,53.6c0,0,3.4,22.9,2.6,34.4c0,0-2,18.7,11.1-9.7c-2.1,17.1-2.1,31.3-1.6,41.6c0.8,16.2,3.2,30.5,4.4,38.1
		c0.7,4.1,1.3,7.1,1.4,7.9c3.6,18.9,5.6,28.9,11.7,39c1.5,2.6,4,6.2,7.8,10.3c7.7,0,15.4,0,23.1,0.3c-9.3-14.3-32.8-55.2-24.1-106.2
		c2.2-12.8,9.7-56.9,41.3-75c17.2-9.9,46.1-14.7,54.4-15.7c5.1-0.6,8.9-0.8,11-1c15.6-1.1,16.7,0.1,36.8-8.2
		c20.1-8.3,22.8-14.5,53.2-18.6c30.4-4.1,56.1-2.5,71-7c10-3,13.3-6.2,16.2-5.7c0.1,0,0.1,0,0.2,0c0-0.1,0.1-0.1,0.1-0.2
		c3-4.4,6.3-8.6,9.5-12.9c5.9-7.9,11.7-15.9,16.2-24.6c0.5-1.1,1.1-2.1,1.6-3.2c0.3-0.6,0.5-1.2,0.8-1.8c0-0.1,0.1-0.1,0.1-0.2
		c0,0,0-0.1,0.1-0.2c0.1-0.3,0.2-0.6,0.4-0.9c0.9-2.2,1.6-4.4,2.2-6.7c0.3-1,0.5-2,0.7-3C599.9,181.9,583.2,175.3,572.7,172.2z"/>
	<path class="st1" d="M729.9,374.7c1.8-1.1,3.6-2.2,5.4-3.3c3.2-36.3-4-64.2-9.4-80c-7.8-22.8-20.7-60.1-57.1-79.7
		c-17.7-9.5-34.9-11.4-46-11.5c-0.3,1.1-0.5,2.1-0.8,3.2c-2.9,9.6-8,18.4-13.6,26.6c-5.5,8.1-11.7,15.7-17.3,23.7
		c-0.2,0.3-0.4,0.5-0.6,0.7c0.2,0.3,0.3,0.5,0.4,0.6c9.9,13.9,76.1,40.6,104,82.9c6.5,9.9,14,25.2,16.5,48.1
		c4.2-2.6,8.4-5.1,12.6-7.7C725.9,376.9,727.9,375.7,729.9,374.7z"/>
</g>
<g>
	<path class="st1" d="M389.3,777.9l16.5-65.2h6.5v87.6h-4.1v-81.1l-16.9,66.1h-3.9l-16.9-66.1v81.1h-4.1v-87.6h6.4L389.3,777.9z"/>
	<path class="st1" d="M442.5,760.8h-10.8v39.5h-4.3v-87.6h15.1c9.4,0,15.8,6,15.8,15v18c0,7.6-4.6,13.3-11.9,14.6l15.1,39.9h-4.5
		L442.5,760.8z M442.6,756.8c6.9,0,11.5-4.4,11.5-11v-18c0-6.6-4.6-11-11.5-11h-10.9v40H442.6z"/>
	<path class="st1" d="M477.5,791.8c2.5,0,4.5,2,4.5,4.6c0,2.5-2,4.5-4.5,4.5s-4.5-2-4.5-4.5C473,793.8,475,791.8,477.5,791.8z"/>
	<path class="st1" d="M497.3,712.7h12.3c9.5,0,15.8,6,15.8,15v13.9c0,6.1-3,10.9-7.9,13.3c6.3,2,10.1,7.3,10.1,14.3v16.1
		c0,9-6.4,15-15.8,15h-14.5V712.7z M509.6,753.4c6.9,0,11.5-4.4,11.5-11v-14.6c0-6.6-4.6-11-11.5-11h-8v36.7H509.6z M511.8,796.3
		c6.9,0,11.5-4.4,11.5-11v-16.9c0-6.6-4.6-11-11.5-11h-10.3v38.9H511.8z"/>
	<path class="st1" d="M572.5,800.3h-4.4l-4.5-22.8h-21.3l-4.4,22.8h-4.4l17.8-87.6h3.3L572.5,800.3z M562.7,773.7l-9.8-49.8
		l-9.8,49.8H562.7z"/>
	<path class="st1" d="M582.1,712.7h12.3c9.5,0,15.8,6,15.8,15v13.9c0,6.1-3,10.9-7.9,13.3c6.3,2,10.1,7.3,10.1,14.3v16.1
		c0,9-6.4,15-15.8,15h-14.5V712.7z M594.4,753.4c6.9,0,11.5-4.4,11.5-11v-14.6c0-6.6-4.6-11-11.5-11h-8v36.7H594.4z M596.7,796.3
		c6.9,0,11.5-4.4,11.5-11v-16.9c0-6.6-4.6-11-11.5-11h-10.3v38.9H596.7z"/>
	<path class="st1" d="M633.4,763.7l-17-50.9h4.5l14.5,44.4l14.5-44.4h4.5l-16.9,50.6v37h-4.1V763.7z"/>
</g>
<g>
	<path class="st1" d="M366.8,809.1h3.1c2.4,0,4,1.2,4,3.1v2.9c0,1.3-0.8,2.2-2,2.7c1.6,0.4,2.6,1.5,2.6,2.9v3.3c0,1.9-1.6,3.1-4,3.1
		h-3.7V809.1z M369.9,817.5c1.7,0,2.9-0.9,2.9-2.3v-3c0-1.4-1.2-2.3-2.9-2.3h-2v7.5H369.9z M370.4,826.3c1.7,0,2.9-0.9,2.9-2.3v-3.5
		c0-1.4-1.2-2.3-2.9-2.3h-2.6v8H370.4z"/>
	<path class="st1" d="M405.4,827.1h-1.1l-1.1-4.7h-5.4l-1.1,4.7h-1.1l4.5-18h0.8L405.4,827.1z M402.9,821.7l-2.5-10.3l-2.5,10.3
		H402.9z"/>
	<path class="st1" d="M431.2,819h-2.7v8.1h-1.1v-18h3.8c2.4,0,4,1.2,4,3.1v3.7c0,1.6-1.2,2.7-3,3l3.8,8.2h-1.1L431.2,819z
		 M431.2,818.2c1.7,0,2.9-0.9,2.9-2.3v-3.7c0-1.4-1.2-2.3-2.9-2.3h-2.8v8.2H431.2z"/>
	<path class="st1" d="M458.5,809.1h3.1c2.4,0,4,1.2,4,3.1v2.9c0,1.3-0.8,2.2-2,2.7c1.6,0.4,2.6,1.5,2.6,2.9v3.3c0,1.9-1.6,3.1-4,3.1
		h-3.7V809.1z M461.6,817.5c1.7,0,2.9-0.9,2.9-2.3v-3c0-1.4-1.2-2.3-2.9-2.3h-2v7.5H461.6z M462.2,826.3c1.7,0,2.9-0.9,2.9-2.3v-3.5
		c0-1.4-1.2-2.3-2.9-2.3h-2.6v8H462.2z"/>
	<path class="st1" d="M488.8,809.1h6.6v0.8h-5.5v7.8h4.9v0.8h-4.9v7.8h5.5v0.8h-6.6V809.1z"/>
	<path class="st1" d="M521.6,819h-2.7v8.1h-1.1v-18h3.8c2.4,0,4,1.2,4,3.1v3.7c0,1.6-1.2,2.7-3,3l3.8,8.2h-1.1L521.6,819z
		 M521.6,818.2c1.7,0,2.9-0.9,2.9-2.3v-3.7c0-1.4-1.2-2.3-2.9-2.3h-2.8v8.2H521.6z"/>
	<path class="st1" d="M552,817.7c1.7,1.1,3.4,2.2,3.4,3.9v2.6c0,1.9-1.5,3.1-3.8,3.1c-2.2,0-3.7-1.2-3.7-3.1v-2.2h1v2.2
		c0,1.4,1.1,2.3,2.7,2.3c1.7,0,2.8-0.9,2.8-2.3v-2.6c0-1.3-1.5-2.2-2.9-3.2c-1.7-1.1-3.5-2.2-3.5-3.9v-2.4c0-1.9,1.4-3.1,3.6-3.1
		s3.6,1.2,3.6,3.1v2.2h-1v-2.2c0-1.4-1-2.3-2.6-2.3s-2.6,0.9-2.6,2.3v2.4C548.9,815.8,550.5,816.7,552,817.7z"/>
	<path class="st1" d="M577.9,809.1h1.1v8.6h5.8v-8.6h1.1v18h-1.1v-8.6H579v8.6h-1.1V809.1z"/>
	<path class="st1" d="M612.9,809c2.4,0,4,1.2,4,3.1v12.1c0,1.9-1.6,3.1-4,3.1c-2.4,0-4-1.2-4-3.1v-12.1
		C608.9,810.2,610.5,809,612.9,809z M610,824.2c0,1.4,1.2,2.3,2.9,2.3c1.7,0,2.9-0.9,2.9-2.3v-12.1c0-1.4-1.2-2.3-2.9-2.3
		c-1.8,0-2.9,0.9-2.9,2.3V824.2z"/>
	<path class="st1" d="M639.9,809.1h4c2.4,0,4,1.2,4,3.1v4c0,1.9-1.6,3.1-4,3.1H641v7.9h-1.1V809.1z M643.9,818.4
		c1.7,0,2.9-0.9,2.9-2.3v-4c0-1.4-1.2-2.3-2.9-2.3H641l0,8.5H643.9z"/>
</g>
</svg>
